# This file uses centimeters as units for non-parametric coordinates.

mtllib LightCycle_Wheel_Front_Right.mtl
g default
v 0.713786 0.830582 0.000000
v 0.713786 0.767357 -0.317850
v 0.713786 0.587310 -0.587309
v 0.713786 0.317850 -0.767357
v 0.713786 -0.000000 -0.830581
v 0.713786 -0.317850 -0.767357
v 0.713786 -0.587310 -0.587309
v 0.713786 -0.767357 -0.317849
v 0.713786 -0.830581 0.000000
v 0.713786 -0.767357 0.317850
v 0.713786 -0.587309 0.587310
v 0.713786 -0.317849 0.767357
v 0.713786 0.000000 0.830582
v 0.713786 0.317850 0.767357
v 0.713786 0.587310 0.587309
v 0.713786 0.767357 0.317849
v 0.237929 0.830582 0.000000
v 0.237929 0.767357 -0.317850
v 0.237929 0.587310 -0.587309
v 0.237929 0.317850 -0.767357
v 0.237929 -0.000000 -0.830581
v 0.237929 -0.317850 -0.767357
v 0.237929 -0.587310 -0.587309
v 0.237929 -0.767357 -0.317849
v 0.237929 -0.830581 0.000000
v 0.237929 -0.767357 0.317850
v 0.237929 -0.587309 0.587310
v 0.237929 -0.317849 0.767357
v 0.237929 0.000000 0.830582
v 0.237929 0.317850 0.767357
v 0.237929 0.587310 0.587309
v 0.237929 0.767357 0.317849
v -0.237929 0.830581 0.000000
v -0.237929 0.767357 -0.317850
v -0.237929 0.587310 -0.587309
v -0.237929 0.317850 -0.767357
v -0.237929 -0.000000 -0.830581
v -0.237929 -0.317850 -0.767357
v -0.237929 -0.587310 -0.587309
v -0.237929 -0.767357 -0.317849
v -0.237929 -0.767357 0.317850
v -0.237929 -0.587309 0.587310
v -0.237929 -0.317849 0.767357
v -0.237929 0.000000 0.830582
v -0.237929 0.317850 0.767357
v -0.237929 0.587310 0.587309
v -0.237929 0.767357 0.317849
v -0.713786 0.830581 0.000000
v -0.713786 0.767357 -0.317850
v -0.713786 0.587310 -0.587309
v -0.713786 0.317850 -0.767357
v -0.713786 -0.000000 -0.830581
v -0.713786 -0.317850 -0.767357
v -0.713786 -0.587310 -0.587309
v -0.713786 -0.767357 -0.317849
v -0.713786 -0.830581 0.000000
v -0.713786 -0.767357 0.317850
v -0.713786 -0.587309 0.587310
v -0.713786 -0.317849 0.767357
v -0.713786 0.000000 0.830582
v -0.713786 0.317850 0.767357
v -0.713786 0.587310 0.587309
v -0.713786 0.767357 0.317849
v -0.713786 1.107442 0.000000
v -0.713786 1.023143 -0.423800
v -0.713786 0.783080 -0.783080
v -0.713786 0.423800 -1.023143
v -0.713786 -0.000000 -1.107442
v -0.713786 -0.423800 -1.023143
v -0.713786 -0.783080 -0.783079
v -0.713786 -1.023143 -0.423799
v -0.713786 -1.107442 0.000000
v -0.713786 -1.023143 0.423800
v -0.713786 -0.783079 0.783080
v -0.713786 -0.423799 1.023143
v -0.713786 0.000001 1.107442
v -0.713786 0.423800 1.023143
v -0.713786 0.783080 0.783079
v -0.713786 1.023143 0.423799
v -0.259053 1.205764 0.000000
v -0.259053 1.113980 -0.461426
v -0.259053 0.852604 -0.852604
v -0.259053 0.461426 -1.113981
v -0.259053 -0.000000 -1.205764
v -0.259053 -0.461426 -1.113980
v -0.259053 -0.852604 -0.852603
v -0.259053 -1.113981 -0.461425
v -0.259053 -1.205764 0.000000
v -0.259053 -1.113980 0.461427
v -0.259053 -0.852604 0.852604
v -0.259053 -0.461425 1.113981
v -0.259053 0.000001 1.205764
v -0.259053 0.461427 1.113980
v -0.259053 0.852604 0.852603
v -0.259053 1.113981 0.461426
v 0.259053 1.205764 0.000000
v 0.259053 1.113980 -0.461426
v 0.259052 0.852604 -0.852604
v 0.259052 0.461426 -1.113981
v 0.259052 -0.000000 -1.205764
v 0.259053 -0.461426 -1.113980
v 0.259052 -0.852604 -0.852603
v 0.259052 -1.113981 -0.461425
v 0.259053 -1.205764 0.000000
v 0.259052 -1.113980 0.461427
v 0.259052 -0.852604 0.852604
v 0.259052 -0.461425 1.113981
v 0.259052 0.000001 1.205764
v 0.259052 0.461427 1.113980
v 0.259052 0.852604 0.852603
v 0.259053 1.113981 0.461426
v 0.713786 1.107442 0.000000
v 0.713786 1.023143 -0.423800
v 0.713786 0.783080 -0.783080
v 0.713786 0.423800 -1.023143
v 0.713786 -0.000000 -1.107442
v 0.713786 -0.423800 -1.023143
v 0.713786 -0.783080 -0.783079
v 0.713786 -1.023143 -0.423799
v 0.713786 -1.107442 0.000000
v 0.713786 -1.023143 0.423800
v 0.713786 -0.783079 0.783080
v 0.713786 -0.423799 1.023143
v 0.713786 0.000001 1.107442
v 0.713786 0.423800 1.023143
v 0.713786 0.783080 0.783079
v 0.713786 1.023143 0.423799
v -0.237929 -0.830581 0.000000
vt 0.062500 1.000000
vt 0.000000 1.000000
vt 0.000000 0.875000
vt 0.062500 0.875000
vt 0.125000 1.000000
vt 0.125000 0.875000
vt 0.187500 1.000000
vt 0.187500 0.875000
vt 0.250000 1.000000
vt 0.250000 0.875000
vt 0.312500 1.000000
vt 0.312500 0.875000
vt 0.375000 1.000000
vt 0.375000 0.875000
vt 0.437500 1.000000
vt 0.437500 0.875000
vt 0.500000 1.000000
vt 0.500000 0.875000
vt 0.562500 1.000000
vt 0.562500 0.875000
vt 0.625000 1.000000
vt 0.625000 0.875000
vt 0.687500 1.000000
vt 0.687500 0.875000
vt 0.750000 1.000000
vt 0.750000 0.875000
vt 0.812500 1.000000
vt 0.812500 0.875000
vt 0.875000 1.000000
vt 0.875000 0.875000
vt 0.937500 1.000000
vt 0.937500 0.875000
vt 1.000000 1.000000
vt 1.000000 0.875000
vt 0.000000 0.750000
vt 0.062500 0.750000
vt 0.125000 0.750000
vt 0.187500 0.750000
vt 0.250000 0.750000
vt 0.312500 0.750000
vt 0.375000 0.750000
vt 0.437500 0.750000
vt 0.562500 0.750000
vt 0.625000 0.750000
vt 0.687500 0.750000
vt 0.750000 0.750000
vt 0.812500 0.750000
vt 0.875000 0.750000
vt 0.937500 0.750000
vt 1.000000 0.750000
vt 0.000000 0.625000
vt 0.062500 0.625000
vt 0.125000 0.625000
vt 0.187500 0.625000
vt 0.250000 0.625000
vt 0.312500 0.625000
vt 0.375000 0.625000
vt 0.437500 0.625000
vt 0.562500 0.625000
vt 0.625000 0.625000
vt 0.687500 0.625000
vt 0.750000 0.625000
vt 0.812500 0.625000
vt 0.875000 0.625000
vt 0.937500 0.625000
vt 1.000000 0.625000
vt 0.000000 0.500000
vt 0.062500 0.500000
vt 0.125000 0.500000
vt 0.187500 0.500000
vt 0.250000 0.500000
vt 0.312500 0.500000
vt 0.375000 0.500000
vt 0.437500 0.500000
vt 0.500000 0.625000
vt 0.500000 0.500000
vt 0.562500 0.500000
vt 0.625000 0.500000
vt 0.687500 0.500000
vt 0.750000 0.500000
vt 0.812500 0.500000
vt 0.875000 0.500000
vt 0.937500 0.500000
vt 1.000000 0.500000
vt 0.000000 0.375000
vt 0.062500 0.375000
vt 0.125000 0.375000
vt 0.187500 0.375000
vt 0.250000 0.375000
vt 0.312500 0.375000
vt 0.375000 0.375000
vt 0.437500 0.375000
vt 0.500000 0.375000
vt 0.562500 0.375000
vt 0.625000 0.375000
vt 0.687500 0.375000
vt 0.750000 0.375000
vt 0.812500 0.375000
vt 0.875000 0.375000
vt 0.937500 0.375000
vt 1.000000 0.375000
vt 0.000000 0.250000
vt 0.062500 0.250000
vt 0.125000 0.250000
vt 0.187500 0.250000
vt 0.250000 0.250000
vt 0.312500 0.250000
vt 0.375000 0.250000
vt 0.437500 0.250000
vt 0.500000 0.250000
vt 0.562500 0.250000
vt 0.625000 0.250000
vt 0.687500 0.250000
vt 0.750000 0.250000
vt 0.812500 0.250000
vt 0.875000 0.250000
vt 0.937500 0.250000
vt 1.000000 0.250000
vt 0.000000 0.125000
vt 0.062500 0.125000
vt 0.125000 0.125000
vt 0.187500 0.125000
vt 0.250000 0.125000
vt 0.312500 0.125000
vt 0.375000 0.125000
vt 0.437500 0.125000
vt 0.500000 0.125000
vt 0.562500 0.125000
vt 0.625000 0.125000
vt 0.687500 0.125000
vt 0.750000 0.125000
vt 0.812500 0.125000
vt 0.875000 0.125000
vt 0.937500 0.125000
vt 1.000000 0.125000
vt 0.000000 0.000000
vt 0.062500 0.000000
vt 0.125000 0.000000
vt 0.187500 0.000000
vt 0.250000 0.000000
vt 0.312500 0.000000
vt 0.375000 0.000000
vt 0.437500 0.000000
vt 0.500000 0.000000
vt 0.562500 0.000000
vt 0.625000 0.000000
vt 0.687500 0.000000
vt 0.750000 0.000000
vt 0.812500 0.000000
vt 0.875000 0.000000
vt 0.937500 0.000000
vt 1.000000 0.000000
vt 0.000000 0.000000
vt 1.000000 0.000000
vt 1.000000 1.000000
vt 0.000000 1.000000
vt 0.000000 0.000000
vt 1.000000 0.000000
vt 1.000000 1.000000
vt 0.000000 1.000000
vt 0.000000 0.000000
vt 1.000000 0.000000
vt 1.000000 1.000000
vt 0.000000 1.000000
vt 0.000000 0.000000
vt 1.000000 0.000000
vt 1.000000 1.000000
vt 0.000000 1.000000
vn 0.000000 -0.923879 0.382684
vn 0.000000 -1.000000 -0.000000
vn 0.000000 -1.000000 -0.000000
vn 0.000000 -0.923879 0.382684
vn 0.000000 -0.707107 0.707107
vn 0.000000 -0.707107 0.707107
vn 0.000000 -0.382684 0.923880
vn 0.000000 -0.382684 0.923879
vn 0.000000 0.000000 1.000000
vn 0.000000 0.000000 1.000000
vn 0.000000 0.382684 0.923879
vn 0.000000 0.382684 0.923880
vn 0.000000 0.707107 0.707107
vn 0.000000 0.707107 0.707107
vn 0.000000 0.923880 0.382683
vn 0.000000 0.923880 0.382683
vn 0.000000 1.000000 -0.000000
vn -0.000000 1.000000 -0.000000
vn 0.000000 0.923879 -0.382684
vn 0.000000 0.923879 -0.382684
vn 0.000000 0.707106 -0.707107
vn -0.000000 0.707106 -0.707107
vn 0.000000 0.382684 -0.923880
vn -0.000000 0.382684 -0.923880
vn -0.000000 0.000000 -1.000000
vn -0.000000 0.000000 -1.000000
vn -0.000000 -0.382684 -0.923879
vn -0.000000 -0.382685 -0.923879
vn 0.000000 -0.707107 -0.707107
vn 0.000000 -0.707107 -0.707107
vn 0.000000 -0.923879 -0.382684
vn 0.000000 -0.923880 -0.382684
vn 0.000000 -1.000000 -0.000000
vn 0.000000 -0.923879 0.382684
vn 0.000000 -0.707107 0.707107
vn 0.000000 -0.382684 0.923879
vn 0.000000 0.000000 1.000000
vn 0.000000 0.382684 0.923879
vn 0.000000 0.707107 0.707107
vn 0.000000 0.923880 0.382683
vn 0.000000 0.923879 -0.382684
vn -0.000000 0.707106 -0.707107
vn -0.000000 0.382684 -0.923879
vn -0.000000 -0.000000 -1.000000
vn 0.000000 -0.382685 -0.923879
vn 0.000000 -0.707107 -0.707107
vn 0.000000 -0.923880 -0.382683
vn 0.000000 -1.000000 -0.000000
vn 0.000000 -0.923880 0.382684
vn 0.000000 -0.707107 0.707107
vn 0.000000 -0.382684 0.923879
vn 0.000000 0.000000 1.000000
vn 0.000000 0.382684 0.923879
vn 0.000000 0.707107 0.707107
vn 0.000000 0.923880 0.382683
vn 0.000000 0.923880 -0.382684
vn 0.000000 0.707106 -0.707107
vn -0.000000 0.382684 -0.923880
vn -0.000000 -0.000000 -1.000000
vn 0.000000 -0.382685 -0.923879
vn 0.000000 -0.707107 -0.707107
vn 0.000000 -0.923880 -0.382683
vn -1.000000 0.000000 0.000000
vn -1.000000 0.000000 0.000000
vn -1.000000 0.000000 0.000000
vn -1.000000 0.000000 0.000000
vn -1.000000 0.000000 0.000000
vn -1.000000 0.000000 0.000000
vn -1.000000 -0.000000 0.000000
vn -1.000000 -0.000000 0.000000
vn -1.000000 0.000000 -0.000000
vn -1.000000 0.000000 -0.000000
vn -1.000000 0.000000 -0.000000
vn -1.000000 0.000000 -0.000000
vn -1.000000 -0.000000 0.000000
vn -1.000000 -0.000000 0.000000
vn -1.000000 0.000000 0.000000
vn -1.000000 0.000000 0.000000
vn -1.000000 -0.000000 -0.000000
vn -1.000000 -0.000000 -0.000000
vn -1.000000 -0.000000 -0.000000
vn -1.000000 -0.000000 -0.000000
vn -1.000000 0.000000 0.000000
vn -1.000000 0.000000 0.000000
vn -1.000000 0.000000 0.000000
vn -1.000000 0.000000 0.000000
vn -1.000000 -0.000000 0.000000
vn -1.000000 -0.000000 0.000000
vn -1.000000 -0.000000 0.000000
vn -1.000000 -0.000000 0.000000
vn -1.000000 0.000000 0.000000
vn -1.000000 0.000000 0.000000
vn -1.000000 -0.000000 0.000000
vn -1.000000 -0.000000 0.000000
vn -0.211335 0.903013 -0.374040
vn -0.211335 0.977414 0.000000
vn -0.106315 0.994333 -0.000000
vn -0.106314 0.918643 -0.380515
vn -0.211335 0.691136 -0.691136
vn -0.106314 0.703099 -0.703099
vn -0.211335 0.374040 -0.903013
vn -0.106315 0.380514 -0.918644
vn -0.211336 -0.000000 -0.977414
vn -0.106315 -0.000000 -0.994333
vn -0.211335 -0.374040 -0.903012
vn -0.106315 -0.380515 -0.918643
vn -0.211335 -0.691136 -0.691135
vn -0.106315 -0.703100 -0.703099
vn -0.211335 -0.903013 -0.374040
vn -0.106315 -0.918644 -0.380514
vn -0.211336 -0.977414 0.000000
vn -0.106315 -0.994333 0.000000
vn -0.211336 -0.903012 0.374040
vn -0.106315 -0.918643 0.380515
vn -0.211336 -0.691135 0.691136
vn -0.106315 -0.703099 0.703100
vn -0.211336 -0.374039 0.903013
vn -0.106315 -0.380514 0.918644
vn -0.211336 0.000001 0.977414
vn -0.106315 0.000001 0.994333
vn -0.211335 0.374041 0.903012
vn -0.106314 0.380515 0.918643
vn -0.211335 0.691136 0.691135
vn -0.106315 0.703100 0.703099
vn -0.211336 0.903013 0.374040
vn -0.106315 0.918644 0.380515
vn 0.106315 0.994333 -0.000000
vn 0.106314 0.918644 -0.380515
vn 0.106314 0.703099 -0.703099
vn 0.106315 0.380515 -0.918644
vn 0.106315 -0.000000 -0.994333
vn 0.106315 -0.380515 -0.918643
vn 0.106315 -0.703100 -0.703099
vn 0.106315 -0.918644 -0.380514
vn 0.106315 -0.994333 0.000000
vn 0.106315 -0.918643 0.380515
vn 0.106315 -0.703099 0.703100
vn 0.106315 -0.380514 0.918644
vn 0.106315 0.000001 0.994333
vn 0.106314 0.380515 0.918643
vn 0.106314 0.703100 0.703099
vn 0.106315 0.918644 0.380515
vn 0.211335 0.977414 0.000000
vn 0.211335 0.903013 -0.374040
vn 0.211335 0.691136 -0.691136
vn 0.211335 0.374040 -0.903013
vn 0.211335 -0.000000 -0.977414
vn 0.211336 -0.374040 -0.903012
vn 0.211335 -0.691136 -0.691135
vn 0.211335 -0.903013 -0.374040
vn 0.211336 -0.977414 0.000000
vn 0.211336 -0.903012 0.374040
vn 0.211336 -0.691136 0.691136
vn 0.211336 -0.374039 0.903013
vn 0.211335 0.000001 0.977414
vn 0.211335 0.374041 0.903012
vn 0.211335 0.691136 0.691135
vn 0.211336 0.903013 0.374040
vn 1.000000 0.000000 0.000000
vn 1.000000 0.000000 0.000000
vn 1.000000 0.000000 0.000000
vn 1.000000 0.000000 0.000000
vn 1.000000 0.000000 0.000000
vn 1.000000 0.000000 0.000000
vn 1.000000 0.000000 0.000000
vn 1.000000 0.000000 0.000000
vn 1.000000 0.000000 0.000000
vn 1.000000 0.000000 0.000000
vn 1.000000 0.000000 -0.000000
vn 1.000000 0.000000 -0.000000
vn 1.000000 0.000000 -0.000000
vn 1.000000 0.000000 -0.000000
vn 1.000000 0.000000 -0.000000
vn 1.000000 0.000000 -0.000000
vn 1.000000 -0.000000 0.000000
vn 1.000000 -0.000000 0.000000
vn 1.000000 -0.000000 0.000000
vn 1.000000 -0.000000 0.000000
vn 1.000000 0.000000 0.000000
vn 1.000000 0.000000 0.000000
vn 1.000000 0.000000 0.000000
vn 1.000000 0.000000 0.000000
vn 1.000000 0.000000 0.000000
vn 1.000000 0.000000 0.000000
vn 1.000000 -0.000000 0.000000
vn 1.000000 -0.000000 0.000000
vn 1.000000 -0.000000 0.000000
vn 1.000000 -0.000000 0.000000
vn 1.000000 -0.000000 0.000000
vn 1.000000 -0.000000 0.000000
vn -0.000000 1.000000 -0.000000
vn 0.000000 1.000000 -0.000000
s 1
g Wheel_Front_Right
usemtl initialShadingGroup
f 2/1/1 1/2/2 17/3/3 18/4/4
f 3/5/5 2/1/1 18/4/4 19/6/6
f 4/7/7 3/5/5 19/6/6 20/8/8
f 5/9/9 4/7/7 20/8/8 21/10/10
f 6/11/11 5/9/9 21/10/10 22/12/12
f 7/13/13 6/11/11 22/12/12 23/14/14
f 8/15/15 7/13/13 23/14/14 24/16/16
f 9/17/17 8/15/15 24/16/16 25/18/18
f 10/19/19 9/17/17 25/18/18 26/20/20
f 11/21/21 10/19/19 26/20/20 27/22/22
f 12/23/23 11/21/21 27/22/22 28/24/24
f 13/25/25 12/23/23 28/24/24 29/26/26
f 14/27/27 13/25/25 29/26/26 30/28/28
f 15/29/29 14/27/27 30/28/28 31/30/30
f 16/31/31 15/29/29 31/30/30 32/32/32
f 1/33/2 16/31/31 32/32/32 17/34/3
f 18/4/4 17/3/3 33/35/33 34/36/34
f 19/6/6 18/4/4 34/36/34 35/37/35
f 20/8/8 19/6/6 35/37/35 36/38/36
f 21/10/10 20/8/8 36/38/36 37/39/37
f 22/12/12 21/10/10 37/39/37 38/40/38
f 23/14/14 22/12/12 38/40/38 39/41/39
f 24/16/16 23/14/14 39/41/39 40/42/40
f 27/22/22 26/20/20 41/43/41 42/44/42
f 28/24/24 27/22/22 42/44/42 43/45/43
f 29/26/26 28/24/24 43/45/43 44/46/44
f 30/28/28 29/26/26 44/46/44 45/47/45
f 31/30/30 30/28/28 45/47/45 46/48/46
f 32/32/32 31/30/30 46/48/46 47/49/47
f 17/34/3 32/32/32 47/49/47 33/50/33
f 34/36/34 33/35/33 48/51/48 49/52/49
f 35/37/35 34/36/34 49/52/49 50/53/50
f 36/38/36 35/37/35 50/53/50 51/54/51
f 37/39/37 36/38/36 51/54/51 52/55/52
f 38/40/38 37/39/37 52/55/52 53/56/53
f 39/41/39 38/40/38 53/56/53 54/57/54
f 40/42/40 39/41/39 54/57/54 55/58/55
f 42/44/42 41/43/41 57/59/56 58/60/57
f 43/45/43 42/44/42 58/60/57 59/61/58
f 44/46/44 43/45/43 59/61/58 60/62/59
f 45/47/45 44/46/44 60/62/59 61/63/60
f 46/48/46 45/47/45 61/63/60 62/64/61
f 47/49/47 46/48/46 62/64/61 63/65/62
f 33/50/33 47/49/47 63/65/62 48/66/48
s 2
f 49/52/63 48/51/64 64/67/65 65/68/66
f 50/53/67 49/52/63 65/68/66 66/69/68
f 51/54/69 50/53/67 66/69/68 67/70/70
f 52/55/71 51/54/69 67/70/70 68/71/72
f 53/56/73 52/55/71 68/71/72 69/72/74
f 54/57/75 53/56/73 69/72/74 70/73/76
f 55/58/77 54/57/75 70/73/76 71/74/78
f 56/75/79 55/58/77 71/74/78 72/76/80
f 57/59/81 56/75/79 72/76/80 73/77/82
f 58/60/83 57/59/81 73/77/82 74/78/84
f 59/61/85 58/60/83 74/78/84 75/79/86
f 60/62/87 59/61/85 75/79/86 76/80/88
f 61/63/89 60/62/87 76/80/88 77/81/90
f 62/64/91 61/63/89 77/81/90 78/82/92
f 63/65/93 62/64/91 78/82/92 79/83/94
f 48/66/64 63/65/93 79/83/94 64/84/65
s 3
f 65/68/95 64/67/96 80/85/97 81/86/98
f 66/69/99 65/68/95 81/86/98 82/87/100
f 67/70/101 66/69/99 82/87/100 83/88/102
f 68/71/103 67/70/101 83/88/102 84/89/104
f 69/72/105 68/71/103 84/89/104 85/90/106
f 70/73/107 69/72/105 85/90/106 86/91/108
f 71/74/109 70/73/107 86/91/108 87/92/110
f 72/76/111 71/74/109 87/92/110 88/93/112
f 73/77/113 72/76/111 88/93/112 89/94/114
f 74/78/115 73/77/113 89/94/114 90/95/116
f 75/79/117 74/78/115 90/95/116 91/96/118
f 76/80/119 75/79/117 91/96/118 92/97/120
f 77/81/121 76/80/119 92/97/120 93/98/122
f 78/82/123 77/81/121 93/98/122 94/99/124
f 79/83/125 78/82/123 94/99/124 95/100/126
f 64/84/96 79/83/125 95/100/126 80/101/97
f 81/86/98 80/85/97 96/102/127 97/103/128
f 82/87/100 81/86/98 97/103/128 98/104/129
f 83/88/102 82/87/100 98/104/129 99/105/130
f 84/89/104 83/88/102 99/105/130 100/106/131
f 85/90/106 84/89/104 100/106/131 101/107/132
f 86/91/108 85/90/106 101/107/132 102/108/133
f 87/92/110 86/91/108 102/108/133 103/109/134
f 88/93/112 87/92/110 103/109/134 104/110/135
f 89/94/114 88/93/112 104/110/135 105/111/136
f 90/95/116 89/94/114 105/111/136 106/112/137
f 91/96/118 90/95/116 106/112/137 107/113/138
f 92/97/120 91/96/118 107/113/138 108/114/139
f 93/98/122 92/97/120 108/114/139 109/115/140
f 94/99/124 93/98/122 109/115/140 110/116/141
f 95/100/126 94/99/124 110/116/141 111/117/142
f 80/101/97 95/100/126 111/117/142 96/118/127
f 97/103/128 96/102/127 112/119/143 113/120/144
f 98/104/129 97/103/128 113/120/144 114/121/145
f 99/105/130 98/104/129 114/121/145 115/122/146
f 100/106/131 99/105/130 115/122/146 116/123/147
f 101/107/132 100/106/131 116/123/147 117/124/148
f 102/108/133 101/107/132 117/124/148 118/125/149
f 103/109/134 102/108/133 118/125/149 119/126/150
f 104/110/135 103/109/134 119/126/150 120/127/151
f 105/111/136 104/110/135 120/127/151 121/128/152
f 106/112/137 105/111/136 121/128/152 122/129/153
f 107/113/138 106/112/137 122/129/153 123/130/154
f 108/114/139 107/113/138 123/130/154 124/131/155
f 109/115/140 108/114/139 124/131/155 125/132/156
f 110/116/141 109/115/140 125/132/156 126/133/157
f 111/117/142 110/116/141 126/133/157 127/134/158
f 96/118/127 111/117/142 127/134/158 112/135/143
s 4
f 113/120/159 112/119/160 1/136/161 2/137/162
f 114/121/163 113/120/159 2/137/162 3/138/164
f 115/122/165 114/121/163 3/138/164 4/139/166
f 116/123/167 115/122/165 4/139/166 5/140/168
f 117/124/169 116/123/167 5/140/168 6/141/170
f 118/125/171 117/124/169 6/141/170 7/142/172
f 119/126/173 118/125/171 7/142/172 8/143/174
f 120/127/175 119/126/173 8/143/174 9/144/176
f 121/128/177 120/127/175 9/144/176 10/145/178
f 122/129/179 121/128/177 10/145/178 11/146/180
f 123/130/181 122/129/179 11/146/180 12/147/182
f 124/131/183 123/130/181 12/147/182 13/148/184
f 125/132/185 124/131/183 13/148/184 14/149/186
f 126/133/187 125/132/185 14/149/186 15/150/188
f 127/134/189 126/133/187 15/150/188 16/151/190
f 112/135/160 127/134/189 16/151/190 1/152/161
s 1
f 25/153/18 24/154/16 40/155/40 128/156/191
f 26/157/20 25/158/18 128/159/191 41/160/41
f 128/161/191 40/162/40 55/163/55 56/164/192
f 41/165/41 128/166/191 56/167/192 57/168/56
