# This file uses centimeters as units for non-parametric coordinates.

mtllib LightCycle_Axel_Front_Left.mtl
g default
v -1.230288 -0.184869 -0.201985
v -1.230288 -0.190575 0.000000
v -0.754431 -0.184869 -0.201985
v -0.754431 -0.179163 0.000000
v -1.230288 -0.184869 0.201986
v -0.754431 -0.184869 0.201986
v -0.278573 -0.184869 -0.201985
v -0.278573 -0.190575 0.000000
v -0.278573 -0.184869 0.201986
v -1.230288 -0.476113 0.000000
v -1.230288 -0.476113 0.259918
v -0.754431 -0.476113 0.259918
v -0.278573 -0.476113 0.259918
v -0.278573 -0.476113 0.000000
v -0.278573 -0.476113 -0.259917
v -0.754431 -0.476113 -0.259917
v -1.230288 -0.476113 -0.259917
v 0.108873 -0.476113 0.259918
v 0.108873 -0.476113 0.000000
v 0.108873 -0.184869 0.201986
v 0.108873 -0.190575 0.000000
v 0.108873 -0.476113 -0.259917
v 0.108873 -0.184869 -0.201985
v -1.230288 -0.830581 0.000000
v -1.230288 -0.767357 -0.317849
v -0.754431 -0.767357 -0.317849
v -1.230288 -0.767357 0.317850
v -0.754431 -0.767357 0.317850
v -0.278573 -0.767357 -0.317849
v -0.278573 -0.830581 0.000000
v -0.278573 -0.767357 0.317850
vt 0.500000 0.875000
vt 0.437500 0.875000
vt 0.437500 0.750000
vt 0.500000 0.750000
vt 0.562500 0.875000
vt 0.562500 0.750000
vt 0.437500 0.625000
vt 0.500000 0.625000
vt 0.562500 0.625000
vt 0.500000 0.875000
vt 0.437500 0.875000
vt 0.437500 0.875000
vt 0.500000 0.875000
vt 0.437500 0.750000
vt 0.437500 0.750000
vt 0.562500 0.875000
vt 0.562500 0.875000
vt 0.562500 0.750000
vt 0.562500 0.750000
vt 0.437500 0.625000
vt 0.437500 0.625000
vt 0.500000 0.625000
vt 0.500000 0.625000
vt 0.562500 0.625000
vt 0.562500 0.625000
vt 0.500000 0.625000
vt 0.562500 0.625000
vt 0.562500 0.625000
vt 0.500000 0.625000
vt 0.437500 0.625000
vt 0.437500 0.625000
vn -0.011990 0.999928 0.000000
vn -0.000000 1.000000 0.000000
vn -0.000000 1.000000 0.000000
vn -0.011990 0.999928 0.000000
vn -0.011990 0.999928 0.000000
vn -0.000000 1.000000 -0.000000
vn 0.005996 0.999982 0.000000
vn 0.005996 0.999882 0.014121
vn 0.005996 0.999882 -0.014121
vn -1.000000 0.000000 0.000000
vn -1.000000 0.000000 0.000000
vn -1.000000 0.000000 0.000000
vn -1.000000 0.000000 0.000000
vn 0.000000 0.195090 -0.980785
vn -0.000000 0.195090 -0.980785
vn -0.000000 0.195090 -0.980785
vn 0.000000 0.195090 -0.980785
vn -1.000000 0.000000 0.000000
vn -1.000000 0.000000 0.000000
vn 0.000000 0.195091 0.980785
vn 0.000000 0.195090 0.980785
vn 0.000000 0.195090 0.980785
vn 0.000000 0.195091 0.980785
vn 0.000000 0.195090 -0.980785
vn 0.000000 0.195090 -0.980785
vn 1.000000 0.000000 0.000000
vn 1.000000 0.000000 0.000000
vn 1.000000 -0.000000 0.000000
vn 1.000000 -0.000000 0.000000
vn 1.000000 -0.000001 0.000000
vn 1.000000 -0.000001 0.000000
vn 0.000000 0.195091 0.980785
vn 0.000000 0.195090 0.980785
vn -1.000000 0.000001 0.000000
vn -1.000000 0.000000 0.000000
vn 0.000000 0.195090 0.980785
vn 0.000000 0.195090 0.980785
vn 0.000000 0.195090 0.980785
vn 1.000000 -0.000000 0.000000
vn 1.000000 -0.000000 0.000000
vn 1.000000 -0.000000 0.000000
vn 1.000000 -0.000000 0.000000
vn 1.000000 0.000000 0.000000
vn 1.000000 0.000000 0.000000
vn -0.000000 0.195091 -0.980785
vn 0.000000 0.195091 -0.980785
vn -0.000000 0.195091 -0.980785
vn -1.000000 0.000000 0.000000
vn 0.000000 -1.000000 0.000000
vn 0.000000 -1.000000 0.000000
vn 0.000000 -1.000000 0.000000
vn 0.000000 -1.000000 0.000000
vn 0.000000 0.195090 0.980785
vn 0.000000 0.195090 0.980785
vn -0.000000 0.999601 -0.028239
vn -0.000000 1.000000 0.000000
vn 0.000000 -1.000000 0.000000
vn 0.000000 -1.000000 0.000000
vn -0.000000 0.999601 0.028239
vn 0.000000 0.195090 -0.980785
vn 0.000000 0.195090 -0.980785
s 1
g Axel_Front_Left
usemtl initialShadingGroup
f 2/1/1 4/4/2 3/3/3 1/2/4
f 5/5/5 6/6/6 4/4/2 2/1/1
f 4/4/2 8/8/7 7/7/8 3/3/3
f 6/6/6 9/9/9 8/8/7 4/4/2
s 2
f 24/10/10 10/13/11 17/12/12 25/11/13
s 3
f 25/11/14 17/12/15 16/15/16 26/14/17
s 2
f 27/16/18 11/17/19 10/13/11 24/10/10
s 4
f 28/18/20 12/19/21 11/17/22 27/16/23
s 3
f 26/14/17 16/15/16 15/21/24 29/20/25
s 5
f 29/20/26 15/21/27 14/23/28 30/22/29
f 30/22/29 14/23/28 13/25/30 31/24/31
s 4
f 31/24/32 13/25/33 12/19/21 28/18/20
s 2
f 11/17/19 5/5/34 2/1/35 10/13/11
s 4
f 12/19/21 6/6/36 5/5/37 11/17/22
f 13/25/33 9/9/38 6/6/36 12/19/21
s 6
f 19/26/39 21/29/40 20/28/41 18/27/42
f 22/30/43 23/31/44 21/29/40 19/26/39
s 3
f 16/15/16 3/3/45 7/7/46 15/21/24
f 17/12/15 1/2/47 3/3/45 16/15/16
s 2
f 10/13/11 2/1/35 1/2/48 17/12/12
s 7
f 14/23/49 19/26/50 18/27/51 13/25/52
s 4
f 13/25/33 18/27/53 20/28/54 9/9/38
s 1
f 9/9/9 20/28/55 21/29/56 8/8/7
s 7
f 15/21/57 22/30/58 19/26/50 14/23/49
s 1
f 8/8/7 21/29/56 23/31/59 7/7/8
s 3
f 7/7/46 23/31/60 22/30/61 15/21/24
